# xmcd
#
# Track frame offsets: 
#        150
#        12438
#        30068
#        40490
#        55570
#        68055
#        82190
#        93390
#        105105
#        115735
#
# Disc length: 1706 seconds
#
# Revision: 2
# Processed by: cddbd v1.5.2PL0 Copyright (c) Steve Scherf et al.
# Submitted via: ExactAudioCopyFreeDBPlugin 1.0
#
DISCID=6c06a80a
DTITLE=Howlin' Wolf - I am the wolf
DYEAR=1995
DGENRE=Blues
TTITLE0=Ain't superstitious
TTITLE1=Goin' down slow
TTITLE2=Somebody walkin' in my house
TTITLE3=Commit a crime
TTITLE4=My mind is ramblin'
TTITLE5=I walked from Dallas
TTITLE6=My country sugar mama
TTITLE7=Louise
TTITLE8=Hold on to your money
TTITLE9=Streamline woman
EXTD=
EXTT0=
EXTT1=
EXTT2=
EXTT3=
EXTT4=\n
EXTT5=
EXTT6=
EXTT7=
EXTT8=
EXTT9=
PLAYORDER=
